<svg width="278" height="224" viewBox="0 0 278 224" fill="none" xmlns="http://www.w3.org/2000/svg">
<path fill-rule="evenodd" clip-rule="evenodd" d="M65.4659 130.183C50.3825 123.979 30.7909 105.927 20.2004 90.1274C5.21407 67.7696 3.40509 42.6914 16.1599 34.1137C28.9148 25.5359 51.4034 36.7069 66.3897 59.0647C67.3151 60.4452 68.2303 61.896 69.1302 63.405C71.5618 60.6997 74.6949 58.9107 78.252 58.4881C87.5146 57.3875 96.1452 65.968 97.5291 77.6531C98.2936 84.1085 99.3125 99.5031 98.5097 112.175C98.7338 112.69 98.937 113.22 99.118 113.763C102.419 123.668 97.0788 134.377 87.1904 137.684C78.9073 140.454 70.0604 137.15 65.4659 130.183Z" fill="white"/>
<path d="M177.644 218.842C218 211.435 215.536 180.381 200.596 149.671C186.311 120.309 146.338 95.915 113.761 98.1457C79.7974 100.471 63.352 122.484 50.8297 154.14C42.7835 174.481 38.8074 194.662 46.3177 207.418C53.2882 219.257 69.531 219.995 83.2099 221.279C95.2175 222.407 110.282 223.559 122.05 223.6C143.225 223.673 168.463 220.221 174.7 219.317C175.672 219.176 176.679 219.019 177.644 218.842Z" fill="white"/>
<ellipse cx="131.701" cy="164.863" rx="7.24716" ry="13.502" fill="#23222A"/>
<ellipse cx="104.565" cy="164.631" rx="7.3921" ry="13.502" fill="#23222A"/>
<path fill-rule="evenodd" clip-rule="evenodd" d="M195.114 135.712C212.983 128.913 235.601 111.319 248.812 95.1517C268.828 70.6569 273.726 41.5127 259.752 30.0562C245.778 18.5998 218.224 29.1694 198.208 53.6641C197.513 54.5152 196.818 55.3927 196.127 56.2942C193.699 53.5704 190.612 51.6516 187.044 50.8984C176.316 48.6337 165.311 57.769 162.463 71.3029C160.818 79.1213 157.82 98.3534 157.65 113.64C153.958 124.467 159.119 136.502 169.774 141.164C178.743 145.088 188.892 142.602 195.114 135.712Z" fill="white"/>
<path d="M104.754 143.157L109.682 148.093" stroke="#23222A" stroke-width="6.24582" stroke-linecap="round"/>
<path d="M194.467 50.4874C192.047 53.1164 187.345 60.3126 187.901 68.0648" stroke="#121314" stroke-width="9.99833" stroke-linecap="round" stroke-linejoin="round"/>
<path d="M70.7466 56.7328C72.0143 58.6384 74.633 63.9646 74.9658 70.0245" stroke="#121314" stroke-width="9.99833" stroke-linecap="round" stroke-linejoin="round"/>
</svg>
