<svg width="51" height="28" viewBox="0 0 51 28" fill="none" xmlns="http://www.w3.org/2000/svg">
<path fill-rule="evenodd" clip-rule="evenodd" d="M12 0C5.37258 0 0 5.37258 0 12C0 15.5541 1.54509 18.7473 4.00022 20.9446L4 21C4 24.866 7.13401 28 11 28H14C15.7135 28 17.2832 27.3843 18.5 26.3621C19.7168 27.3843 21.2865 28 23 28H26C27.7135 28 29.2832 27.3843 30.5 26.3621C31.7168 27.3843 33.2865 28 35 28H38C41.3567 28 44.1616 25.6373 44.8423 22.4842C48.5159 20.4327 51 16.5065 51 12C51 5.37258 45.6274 0 39 0H12Z" fill="white"/>
</svg>
