<svg width="29" height="31" viewBox="0 0 29 31" fill="none" xmlns="http://www.w3.org/2000/svg">
<path d="M3.32439 21.6613C2.72669 22.0908 2.40185 22.3642 2.05103 22.5855C1.66122 22.8328 1.24543 22.8588 0.84263 22.5855C0.374863 22.2731 0.0370316 21.8305 0.166967 21.2838C0.647727 19.2531 1.38836 17.3006 2.7007 15.6474C3.25943 14.9315 4.12999 14.6972 5.05253 15.0356C5.29941 15.1267 5.57227 15.1658 5.78017 15.309C7.79417 16.6497 9.79517 18.0035 11.7832 19.3833C12.043 19.5655 12.186 19.93 12.3679 20.1903C12.121 21.2057 11.4324 21.5181 10.6008 21.2838C9.78218 21.0625 9.00256 20.659 8.22295 20.2684C7.54729 19.93 6.89761 19.5265 6.05303 19.0448C5.74119 20.5678 6.16997 21.7654 6.54679 22.963C6.96258 24.2256 7.7292 25.267 8.78168 26.087C11.3414 28.0656 16.3699 28.9768 19.8652 25.9959C23.2565 23.1062 25.2705 19.4874 25.9461 15.1397C26.4009 12.2239 25.6733 9.43827 24.283 6.87392C23.0616 4.63499 20.9566 3.59364 18.5658 3.2552C14.7067 2.7215 10.9776 3.39838 7.44334 5.03852C5.91011 5.75446 4.66273 6.79582 4.63674 8.74837C4.63674 8.96966 4.22095 9.33413 3.96108 9.36017C3.67522 9.3862 3.28541 9.19095 3.07752 8.96966C2.37587 8.14958 2.40185 7.14728 2.83064 6.28815C3.28541 5.37696 3.89611 4.47879 4.64973 3.81492C5.48132 3.08596 6.49481 2.52624 7.5213 2.08366C10.4059 0.834028 13.4723 0.222221 16.6038 0.222221C18.0461 0.222221 19.5403 0.482559 20.9306 0.886087C24.101 1.8103 26.3099 3.86699 27.5443 6.99108C30.208 13.7209 28.6618 19.7478 24.4259 25.254C23.3864 26.6077 22.0351 27.7663 20.6578 28.7946C15.0056 33.0512 5.3254 30.1614 3.64923 22.9369C3.61025 22.5725 3.5063 22.26 3.32439 21.6613Z" fill="white"/>
</svg>
